<?xml version="1.0" encoding="utf-8"?>
<!-- Generator: Adobe Illustrator 26.1.0, SVG Export Plug-In . SVG Version: 6.00 Build 0)  -->
<svg x="0px" y="0px" viewBox="0 0 410 500">
<style type="text/css">
	.st0{fill:#7FD957;}
	.st1{fill:#0E6131;}
</style>
<path class="st0" d="M189.3,500c0-31.8,0-84.9,0.1-116.6c0-31.8,0.1-84.9,0.1-116.7c0.6-0.4-0.6,0.4,0,0
	c24.8,24.9,50.4,49.3,75.1,74.3c1.9,1.9,2.9,5.5,2.9,8.3c0.2,22.2,0.2,44.5,0,66.7c0,4.3,1.2,5.4,5.5,5.4
	c22.4-0.2,44.8-0.2,67.2,0.1c2.7,0,6,1.4,8,3.3c24.7,25.1,51.2,48.9,74.6,75c-41.1,0.1-82.2,0.2-123.3,0.3
	C262.7,500,226,500,189.3,500z"/>
<path class="st1" d="M137.9,500H57.1c0.1-116.4,0.2-232.9,0.4-349.3c26.8,26.7,53.7,53.4,80.5,80.1
	C137.9,320.5,137.9,410.3,137.9,500z"/>
<path class="st1" d="M137.9,173.4c-26.8-26.7-53.7-53.4-80.5-80.1C57.3,71,57.2,48.7,57,26.5c27,27.1,54,54.1,81,81.2
	C138,129.5,138,151.5,137.9,173.4z"/>
</svg>
