<?xml version="1.0" encoding="utf-8"?>
<!-- Generator: Adobe Illustrator 26.1.0, SVG Export Plug-In . SVG Version: 6.00 Build 0)  -->
<svg version="1.1" id="Layer_1" xmlns="http://www.w3.org/2000/svg" xmlns:xlink="http://www.w3.org/1999/xlink" x="0px" y="0px"
	 viewBox="0 0 1298 500" style="enable-background:new 0 0 1320 500;">
<style type="text/css">
	.st0{fill:#7FD957;}
	.st1{fill:#0E6131;}
	.st2{fill:#0B6130;}
	.st3{fill:#0C6131;}
	.st4{fill:#0D6231;}
	.st5{fill:#0A602F;}
</style>
<path class="st0" d="M233.8,500c0-31.8,0-84.9,0.1-116.6c0-31.8,0.1-84.9,0.1-116.7c0.6-0.4-0.6,0.4,0,0
	c24.8,24.9,50.4,49.3,75.1,74.3c1.9,1.9,2.9,5.5,2.9,8.3c0.2,22.2,0.2,44.5,0,66.7c0,4.3,1.2,5.4,5.5,5.4
	c22.4-0.2,44.8-0.2,67.2,0.1c2.7,0,6,1.4,8,3.3c24.7,25.1,51.2,48.9,74.6,75c-41.1,0.1-82.2,0.2-123.3,0.3
	C307.2,500,270.5,500,233.8,500z"/>
<path class="st1" d="M181.8,500H101c0.1-116.4,0.2-232.9,0.4-349.3c26.8,26.7,53.7,53.4,80.5,80.1
	C181.8,320.5,181.8,410.3,181.8,500z"/>
<path class="st1" d="M181.9,162.4c-26.8-26.7-53.7-53.4-80.5-80.1c-0.1-22.3-0.2-44.6-0.4-66.8c27,27.1,54,54.1,81,81.2
	C181.9,118.5,181.9,140.5,181.9,162.4z"/>
<path class="st2" d="M409.8,412.6c-27.3,0-55,0-84.3-1.6c-1.6-71.8-1.6-142,0.4-212.2c38.2-0.4,74.9-0.4,111.6-0.4
	c30.4,37.5,61.3,75.3,92.9,115.5c2.3,3.1,3.9,4.3,3.9,3.9c1.2-1.2,3.1-2.7,3.1-4.3c0.4-38.2,0.4-76.5,0.4-114.7
	c27.7,0,55-0.4,84.3,1.6c2,71.8,2,142,2,211.9c-30.4,0-60.9,0-91.3,0.4c-15.2,0.4-26.9-0.8-37.5-16c-24.2-35.1-51.1-67.9-78-103.8
	c-1.2-2.7-2-3.1-2.7-3.9c-0.4,1.2-0.8,2.3-1.2,3.1c0,0-0.4,0-1.2,1.2C411.4,333.8,410.6,373.2,409.8,412.6z"/>
<path class="st3" d="M772.7,266.4c19.2,40.6,38.3,81.3,57.5,121.9c3.4,6.8,6.2,13.9,9.8,22.3c-20.5,0-39.3,0.5-58.2-0.5
	c-4.4-0.3-11.1-5.8-12.4-10c-2.6-9.7-8.3-10.8-16.3-10.5c-12.9,0.3-25.9,0.5-38.8,0c-8.3-0.3-13.2,2.9-14.5,11
	c-1.6,7.9-6.2,10.5-13.7,10.2c-18.4-0.3-37,0-56.2,0c0.3-2.1,0.3-3.9,0.8-5.2c22.3-45.9,44.5-91.5,68.6-138.2
	C724.5,266.4,748.6,266.4,772.7,266.4 M735.4,310.7c-6.7,14.2-13.7,28.1-21.2,43.5c14.8,0,25.9,0,38.8,0
	C747.1,339,741.6,325.4,735.4,310.7z"/>
<path class="st2" d="M978.8,265c19.6,1.3,38.5,4.2,50.8,22.5c13.1,19.4,8.9,51.9-17.5,62.3c-3.9,1.6-7.6,3.9-11.3,6
	c10.5,19.1,21.2,25.4,39.3,23.8c2.6,7.6,5.5,15.2,8.9,24.4c-15.7,8.6-32.5,11.5-50.3,10c-22-1.8-34.8-17-46.6-33.3
	c-8.9-12.3-22.5-17.5-36.1-12.6c-2.1,0.8-4.2,3.9-4.7,6.3c-0.8,3.1-0.3,6.8-0.3,10.5c-0.5,28.3,3.9,24.4-25.4,24.6
	c-12.6,0.3-25.1,0-39-1.3c-1-48.2-1-95.3,0.3-142.5C891.6,265.2,935.3,265,978.8,265 M908.9,302.7c0.5,9.2,1.3,18.6,4.5,27.8
	c12.6,0,25.1,1.3,37.5-0.5c7.1-1,16.5-5.8,19.1-11.3c4.2-9.2-4.5-14.4-14.4-18.6c-14.9,0.5-29.9,1.3-45,1.6
	C910.7,301.7,911,301.7,908.9,302.7z"/>
<path class="st4" d="M1102.9,267.1c10.2,28.2,20.7,56.4,31,84.7c1.1,0.3,2,0.5,3.1,1c10.2-28.2,20.7-56.4,32.5-85.2
	c18.8-0.8,36.2-0.8,53.6-1c-6.3,18-12.2,36.1-19.2,53.8c-10,25.9-20.9,51.2-30.7,77.4c-3.7,9.7-8.1,13.6-17.2,13.1
	c-13.7-1-27.7-0.8-41.4,0c-8.1,0.5-12.4-2.6-15.7-11.5c-16.4-41.8-33.1-83.6-49.7-127.3c2.2-3.1,4.6-5,7-5
	C1071.5,266.6,1087.2,266.8,1102.9,267.1z"/>
<path class="st5" d="M1297.5,410.7c-19.5,0-39,0.3-59.6-1.1c-1.3-48.5-1.3-95.7,0-143.2c20.6-0.3,39.8,0,59.1,1.1
	C1297.2,316,1297.2,363.2,1297.5,410.7z"/>
</svg>
