<?xml version="1.0" encoding="utf-8"?>
<!-- Generator: Adobe Illustrator 26.1.0, SVG Export Plug-In . SVG Version: 6.00 Build 0)  -->
<svg version="1.1" id="Layer_1" xmlns="http://www.w3.org/2000/svg" xmlns:xlink="http://www.w3.org/1999/xlink" x="0px" y="0px"
	 viewBox="0 0 526 590" style="enable-background:new 0 0 526 590;" xml:space="preserve">
<style type="text/css">
	.st0{fill:#7FD957;stroke:#231F20;stroke-miterlimit:10;}
	.st1{fill:#0E6131;stroke:#231F20;stroke-miterlimit:10;}
	.st2{fill:#0E6131;}
	.st3{fill:#7FD957;}
	.st4{fill:none;}
</style>
<path class="st0" d="M218.8,589.9c0-41.8,0-111.7,0.1-153.4c0-41.8,0.1-111.7,0.1-153.5c0.8-0.5-0.8,0.5,0,0
	c32.6,32.8,66.3,64.9,98.8,97.7c2.5,2.5,3.8,7.2,3.8,10.9c0.3,29.2,0.3,58.5,0,87.8c0,5.7,1.6,7.1,7.2,7.1
	c29.5-0.3,58.9-0.3,88.4,0.1c3.6,0,7.9,1.8,10.5,4.3c32.5,33,67.4,64.3,98.1,98.7c-54.1,0.1-108.1,0.3-162.2,0.4
	C315.4,589.9,267.1,589.9,218.8,589.9z"/>
<path class="st1" d="M181.2,590h-102c0.1-147,0.3-294,0.5-441c33.8,33.7,67.8,67.4,101.6,101.1C181.2,363.4,181.2,476.8,181.2,590z"
	/>
<path class="st1" d="M180.9,184C147.3,150.6,113.6,117.1,80,83.7c-0.1-28-0.2-55.9-0.5-83.7c33.8,33.9,67.6,67.8,101.5,101.7
	C181,129,181,156.6,180.9,184z"/>
<path class="st2" d="M91.8,173.9"/>
<path class="st2" d="M145,218.4"/>
<path class="st3" d="M380.2,384.7"/>
<path class="st3" d="M107.1,294.9"/>
<path class="st3" d="M100.6,295.4"/>
<path class="st3" d="M-12.2,444"/>
<polygon class="st4" points="219,283 320.3,384.7 321.9,482.6 324.2,485.8 417.2,486.6 425.4,486.6 525.8,589.6 218.8,589.9 "/>
</svg>
